<svg width="29" height="18" viewBox="0 0 29 18" fill="none" xmlns="http://www.w3.org/2000/svg">
<path fill-rule="evenodd" clip-rule="evenodd" d="M1.26434 0.0917882C1.1643 0.140878 1.01645 0.267257 0.935798 0.372636C0.815936 0.529177 0.789051 0.621793 0.789051 0.87815C0.789051 1.21725 0.880166 1.3931 1.16605 1.60571L1.31729 1.71818H14.7793H28.2413L28.3925 1.60571C28.6784 1.3931 28.7695 1.21725 28.7695 0.87815C28.7695 0.621356 28.7427 0.529232 28.622 0.371654C28.3107 -0.0349174 29.6129 -0.000118312 14.771 0.00129983C2.5458 0.00244526 1.43112 0.00991761 1.26434 0.0917882ZM1.27912 8.20364C0.916962 8.36116 0.708012 8.77962 0.785656 9.19186C0.833677 9.44697 1.10719 9.74832 1.3554 9.81967C1.49415 9.85954 5.65349 9.8723 14.8985 9.86123L28.2413 9.84525L28.3925 9.73278C28.6798 9.51907 28.7695 9.34475 28.7695 8.99981C28.7695 8.65488 28.6798 8.48056 28.3925 8.26685L28.2413 8.15438L14.8437 8.14271C3.78866 8.13305 1.41694 8.14375 1.27912 8.20364ZM1.27912 16.3305C0.77476 16.5504 0.611695 17.2037 0.950692 17.6465C1.24002 18.0243 0.731557 17.9996 8.20853 17.9996C15.7179 17.9996 15.1747 18.0273 15.4805 17.628C15.6012 17.4704 15.628 17.3783 15.628 17.1215C15.628 16.7824 15.5369 16.6065 15.251 16.3939C15.1004 16.2819 15.0734 16.2814 8.27298 16.2696C2.68099 16.2599 1.4159 16.2709 1.27912 16.3305Z" fill="white"/>
</svg>
